<mxfile host="app.diagrams.net" modified="2022-04-03T09:50:00.568Z" agent="5.0 (Windows NT 10.0; Win64; x64) AppleWebKit/537.36 (KHTML, like Gecko) Chrome/100.0.4896.60 Safari/537.36" etag="_ICX1Z1E2xTjb2YSABBZ" version="17.4.0" type="github">
  <diagram id="C5RBs43oDa-KdzZeNtuy" name="Page-1">
    <mxGraphModel dx="944" dy="1624" grid="1" gridSize="10" guides="1" tooltips="1" connect="1" arrows="1" fold="1" page="1" pageScale="1" pageWidth="827" pageHeight="1169" math="1" shadow="0">
      <root>
        <mxCell id="WIyWlLk6GJQsqaUBKTNV-0" />
        <mxCell id="WIyWlLk6GJQsqaUBKTNV-1" parent="WIyWlLk6GJQsqaUBKTNV-0" />
        <mxCell id="X5ubHLuiYz6FB7NnJJDE-8" value="获取微博内容【生成器】&#xa;get_weibo_info" style="swimlane;startSize=50;spacingLeft=5;spacingBottom=5;spacingRight=5;spacingTop=5;spacing=5;fillColor=#d5e8d4;strokeColor=#82b366;" vertex="1" parent="WIyWlLk6GJQsqaUBKTNV-1">
          <mxGeometry x="414" y="169.25" width="190" height="361.5" as="geometry" />
        </mxCell>
        <mxCell id="X5ubHLuiYz6FB7NnJJDE-36" style="edgeStyle=orthogonalEdgeStyle;rounded=0;orthogonalLoop=1;jettySize=auto;html=1;exitX=0.5;exitY=1;exitDx=0;exitDy=0;entryX=0.5;entryY=0;entryDx=0;entryDy=0;" edge="1" parent="X5ubHLuiYz6FB7NnJJDE-8" source="X5ubHLuiYz6FB7NnJJDE-12" target="X5ubHLuiYz6FB7NnJJDE-13">
          <mxGeometry relative="1" as="geometry" />
        </mxCell>
        <mxCell id="X5ubHLuiYz6FB7NnJJDE-12" value="&lt;span&gt;微博总页数 page_num&lt;/span&gt;" style="rounded=0;whiteSpace=wrap;html=1;" vertex="1" parent="X5ubHLuiYz6FB7NnJJDE-8">
          <mxGeometry x="40" y="71.5" width="120" height="35" as="geometry" />
        </mxCell>
        <mxCell id="X5ubHLuiYz6FB7NnJJDE-37" style="edgeStyle=orthogonalEdgeStyle;rounded=0;orthogonalLoop=1;jettySize=auto;html=1;exitX=0.5;exitY=1;exitDx=0;exitDy=0;entryX=0.5;entryY=0;entryDx=0;entryDy=0;" edge="1" parent="X5ubHLuiYz6FB7NnJJDE-8" source="X5ubHLuiYz6FB7NnJJDE-13" target="X5ubHLuiYz6FB7NnJJDE-19">
          <mxGeometry relative="1" as="geometry" />
        </mxCell>
        <mxCell id="X5ubHLuiYz6FB7NnJJDE-13" value="page=1" style="rounded=0;whiteSpace=wrap;html=1;" vertex="1" parent="X5ubHLuiYz6FB7NnJJDE-8">
          <mxGeometry x="40" y="126.5" width="120" height="35" as="geometry" />
        </mxCell>
        <mxCell id="X5ubHLuiYz6FB7NnJJDE-39" value="" style="edgeStyle=orthogonalEdgeStyle;rounded=0;orthogonalLoop=1;jettySize=auto;html=1;" edge="1" parent="X5ubHLuiYz6FB7NnJJDE-8" source="X5ubHLuiYz6FB7NnJJDE-19" target="X5ubHLuiYz6FB7NnJJDE-35">
          <mxGeometry relative="1" as="geometry" />
        </mxCell>
        <mxCell id="X5ubHLuiYz6FB7NnJJDE-19" value="解析 page 页&lt;br&gt;PageParser" style="rounded=0;whiteSpace=wrap;html=1;" vertex="1" parent="X5ubHLuiYz6FB7NnJJDE-8">
          <mxGeometry x="40" y="181.5" width="120" height="35" as="geometry" />
        </mxCell>
        <mxCell id="X5ubHLuiYz6FB7NnJJDE-45" value="" style="edgeStyle=orthogonalEdgeStyle;rounded=0;orthogonalLoop=1;jettySize=auto;html=1;" edge="1" parent="X5ubHLuiYz6FB7NnJJDE-8" source="X5ubHLuiYz6FB7NnJJDE-35" target="X5ubHLuiYz6FB7NnJJDE-41">
          <mxGeometry relative="1" as="geometry" />
        </mxCell>
        <mxCell id="X5ubHLuiYz6FB7NnJJDE-35" value="获取页所有内容&lt;br&gt;get_one_page" style="rounded=0;whiteSpace=wrap;html=1;" vertex="1" parent="X5ubHLuiYz6FB7NnJJDE-8">
          <mxGeometry x="40" y="236.5" width="120" height="35" as="geometry" />
        </mxCell>
        <mxCell id="X5ubHLuiYz6FB7NnJJDE-44" style="edgeStyle=orthogonalEdgeStyle;rounded=0;orthogonalLoop=1;jettySize=auto;html=1;exitX=0.5;exitY=1;exitDx=0;exitDy=0;entryX=0;entryY=0.5;entryDx=0;entryDy=0;" edge="1" parent="X5ubHLuiYz6FB7NnJJDE-8" source="X5ubHLuiYz6FB7NnJJDE-41" target="X5ubHLuiYz6FB7NnJJDE-19">
          <mxGeometry relative="1" as="geometry" />
        </mxCell>
        <mxCell id="X5ubHLuiYz6FB7NnJJDE-41" value="下一页&lt;br&gt;page=page+1" style="rounded=0;whiteSpace=wrap;html=1;" vertex="1" parent="X5ubHLuiYz6FB7NnJJDE-8">
          <mxGeometry x="40" y="291.5" width="120" height="35" as="geometry" />
        </mxCell>
        <mxCell id="X5ubHLuiYz6FB7NnJJDE-46" style="edgeStyle=orthogonalEdgeStyle;rounded=0;orthogonalLoop=1;jettySize=auto;html=1;exitX=1;exitY=0.5;exitDx=0;exitDy=0;entryX=0;entryY=0.5;entryDx=0;entryDy=0;" edge="1" parent="WIyWlLk6GJQsqaUBKTNV-1" source="X5ubHLuiYz6FB7NnJJDE-20" target="X5ubHLuiYz6FB7NnJJDE-8">
          <mxGeometry relative="1" as="geometry" />
        </mxCell>
        <mxCell id="X5ubHLuiYz6FB7NnJJDE-47" value="获取微博内容&#xa;PageParser" style="swimlane;startSize=50;spacingLeft=5;spacingBottom=5;spacingRight=5;spacingTop=5;spacing=5;fillColor=#fff2cc;strokeColor=#d6b656;" vertex="1" parent="WIyWlLk6GJQsqaUBKTNV-1">
          <mxGeometry x="660" y="248.25" width="250" height="301.75" as="geometry" />
        </mxCell>
        <mxCell id="X5ubHLuiYz6FB7NnJJDE-69" style="edgeStyle=orthogonalEdgeStyle;rounded=0;orthogonalLoop=1;jettySize=auto;html=1;exitX=0.5;exitY=1;exitDx=0;exitDy=0;entryX=0.5;entryY=0;entryDx=0;entryDy=0;" edge="1" parent="X5ubHLuiYz6FB7NnJJDE-47" source="X5ubHLuiYz6FB7NnJJDE-49" target="X5ubHLuiYz6FB7NnJJDE-51">
          <mxGeometry relative="1" as="geometry">
            <Array as="points">
              <mxPoint x="48" y="120" />
              <mxPoint x="126" y="120" />
            </Array>
          </mxGeometry>
        </mxCell>
        <mxCell id="X5ubHLuiYz6FB7NnJJDE-49" value="起止日期" style="shape=parallelogram;rounded=0;whiteSpace=wrap;html=1;perimeter=parallelogramPerimeter;comic=0;enumerate=0;treeMoving=0;treeFolding=0;" vertex="1" parent="X5ubHLuiYz6FB7NnJJDE-47">
          <mxGeometry x="10" y="71.5" width="75" height="35" as="geometry" />
        </mxCell>
        <mxCell id="X5ubHLuiYz6FB7NnJJDE-50" style="edgeStyle=orthogonalEdgeStyle;rounded=0;orthogonalLoop=1;jettySize=auto;html=1;exitX=0.5;exitY=1;exitDx=0;exitDy=0;entryX=0.5;entryY=0;entryDx=0;entryDy=0;" edge="1" parent="X5ubHLuiYz6FB7NnJJDE-47" source="X5ubHLuiYz6FB7NnJJDE-51" target="X5ubHLuiYz6FB7NnJJDE-53">
          <mxGeometry relative="1" as="geometry" />
        </mxCell>
        <mxCell id="X5ubHLuiYz6FB7NnJJDE-51" value="组装请求URL" style="rounded=0;whiteSpace=wrap;html=1;" vertex="1" parent="X5ubHLuiYz6FB7NnJJDE-47">
          <mxGeometry x="66.25" y="140" width="120" height="35.75" as="geometry" />
        </mxCell>
        <mxCell id="X5ubHLuiYz6FB7NnJJDE-88" style="edgeStyle=orthogonalEdgeStyle;rounded=0;orthogonalLoop=1;jettySize=auto;html=1;exitX=0.5;exitY=1;exitDx=0;exitDy=0;" edge="1" parent="X5ubHLuiYz6FB7NnJJDE-47" source="X5ubHLuiYz6FB7NnJJDE-53" target="X5ubHLuiYz6FB7NnJJDE-87">
          <mxGeometry relative="1" as="geometry" />
        </mxCell>
        <mxCell id="X5ubHLuiYz6FB7NnJJDE-53" value="请求网页并解析&lt;br&gt;handle_html" style="rounded=0;whiteSpace=wrap;html=1;" vertex="1" parent="X5ubHLuiYz6FB7NnJJDE-47">
          <mxGeometry x="66.25" y="193.75" width="120" height="35" as="geometry" />
        </mxCell>
        <mxCell id="X5ubHLuiYz6FB7NnJJDE-66" style="edgeStyle=orthogonalEdgeStyle;rounded=0;orthogonalLoop=1;jettySize=auto;html=1;exitX=0.5;exitY=1;exitDx=0;exitDy=0;entryX=0.5;entryY=0;entryDx=0;entryDy=0;" edge="1" parent="X5ubHLuiYz6FB7NnJJDE-47" source="X5ubHLuiYz6FB7NnJJDE-58" target="X5ubHLuiYz6FB7NnJJDE-51">
          <mxGeometry relative="1" as="geometry" />
        </mxCell>
        <mxCell id="X5ubHLuiYz6FB7NnJJDE-58" value="用户URL" style="shape=parallelogram;rounded=0;whiteSpace=wrap;html=1;perimeter=parallelogramPerimeter;comic=0;enumerate=0;treeMoving=0;treeFolding=0;" vertex="1" parent="X5ubHLuiYz6FB7NnJJDE-47">
          <mxGeometry x="90" y="71.5" width="75" height="35" as="geometry" />
        </mxCell>
        <mxCell id="X5ubHLuiYz6FB7NnJJDE-70" style="edgeStyle=orthogonalEdgeStyle;rounded=0;orthogonalLoop=1;jettySize=auto;html=1;exitX=0.5;exitY=1;exitDx=0;exitDy=0;entryX=0.5;entryY=0;entryDx=0;entryDy=0;" edge="1" parent="X5ubHLuiYz6FB7NnJJDE-47" source="X5ubHLuiYz6FB7NnJJDE-59" target="X5ubHLuiYz6FB7NnJJDE-51">
          <mxGeometry relative="1" as="geometry">
            <Array as="points">
              <mxPoint x="208" y="120" />
              <mxPoint x="126" y="120" />
            </Array>
          </mxGeometry>
        </mxCell>
        <mxCell id="X5ubHLuiYz6FB7NnJJDE-59" value="页码" style="shape=parallelogram;rounded=0;whiteSpace=wrap;html=1;perimeter=parallelogramPerimeter;comic=0;enumerate=0;treeMoving=0;treeFolding=0;" vertex="1" parent="X5ubHLuiYz6FB7NnJJDE-47">
          <mxGeometry x="170" y="71.5" width="75" height="35" as="geometry" />
        </mxCell>
        <mxCell id="X5ubHLuiYz6FB7NnJJDE-87" value="获得网页标签树&lt;br&gt;selector" style="rounded=0;whiteSpace=wrap;html=1;" vertex="1" parent="X5ubHLuiYz6FB7NnJJDE-47">
          <mxGeometry x="66.25" y="251.75" width="120" height="35" as="geometry" />
        </mxCell>
        <mxCell id="X5ubHLuiYz6FB7NnJJDE-72" style="edgeStyle=orthogonalEdgeStyle;rounded=0;orthogonalLoop=1;jettySize=auto;html=1;exitX=1;exitY=0.5;exitDx=0;exitDy=0;entryX=0;entryY=0.5;entryDx=0;entryDy=0;" edge="1" parent="WIyWlLk6GJQsqaUBKTNV-1" source="X5ubHLuiYz6FB7NnJJDE-19" target="X5ubHLuiYz6FB7NnJJDE-47">
          <mxGeometry relative="1" as="geometry" />
        </mxCell>
        <mxCell id="X5ubHLuiYz6FB7NnJJDE-75" value="获取 page 页全部内容&#xa;get_one_page" style="swimlane;startSize=50;spacingLeft=5;spacingBottom=5;spacingRight=5;spacingTop=5;spacing=5;fillColor=#1ba1e2;strokeColor=#006EAF;fontColor=#ffffff;" vertex="1" parent="WIyWlLk6GJQsqaUBKTNV-1">
          <mxGeometry x="1000" y="380" width="370" height="600" as="geometry" />
        </mxCell>
        <mxCell id="X5ubHLuiYz6FB7NnJJDE-76" style="edgeStyle=orthogonalEdgeStyle;rounded=0;orthogonalLoop=1;jettySize=auto;html=1;exitX=0.5;exitY=1;exitDx=0;exitDy=0;entryX=0.5;entryY=0;entryDx=0;entryDy=0;" edge="1" parent="X5ubHLuiYz6FB7NnJJDE-75" source="X5ubHLuiYz6FB7NnJJDE-77" target="X5ubHLuiYz6FB7NnJJDE-79">
          <mxGeometry relative="1" as="geometry" />
        </mxCell>
        <mxCell id="X5ubHLuiYz6FB7NnJJDE-77" value="&lt;span&gt;已获取的微博 ID 列表&lt;br&gt;weibo_id_list&lt;br&gt;&lt;/span&gt;" style="shape=parallelogram;rounded=0;whiteSpace=wrap;html=1;perimeter=parallelogramPerimeter;" vertex="1" parent="X5ubHLuiYz6FB7NnJJDE-75">
          <mxGeometry x="39.94" y="71.5" width="170" height="35" as="geometry" />
        </mxCell>
        <mxCell id="X5ubHLuiYz6FB7NnJJDE-78" style="edgeStyle=orthogonalEdgeStyle;rounded=0;orthogonalLoop=1;jettySize=auto;html=1;exitX=0.5;exitY=1;exitDx=0;exitDy=0;entryX=0.5;entryY=0;entryDx=0;entryDy=0;" edge="1" parent="X5ubHLuiYz6FB7NnJJDE-75" source="X5ubHLuiYz6FB7NnJJDE-79" target="X5ubHLuiYz6FB7NnJJDE-83">
          <mxGeometry relative="1" as="geometry">
            <mxPoint x="119.94" y="180" as="targetPoint" />
          </mxGeometry>
        </mxCell>
        <mxCell id="X5ubHLuiYz6FB7NnJJDE-79" value="标签树上所有微博&lt;br&gt;info=//div[@class=&#39;c&#39;]" style="rounded=0;whiteSpace=wrap;html=1;" vertex="1" parent="X5ubHLuiYz6FB7NnJJDE-75">
          <mxGeometry x="59.94" y="129" width="120" height="35" as="geometry" />
        </mxCell>
        <mxCell id="X5ubHLuiYz6FB7NnJJDE-94" style="edgeStyle=orthogonalEdgeStyle;rounded=0;orthogonalLoop=1;jettySize=auto;html=1;exitX=0.5;exitY=1;exitDx=0;exitDy=0;entryX=0.5;entryY=0;entryDx=0;entryDy=0;elbow=vertical;" edge="1" parent="X5ubHLuiYz6FB7NnJJDE-75" source="X5ubHLuiYz6FB7NnJJDE-83" target="X5ubHLuiYz6FB7NnJJDE-85">
          <mxGeometry relative="1" as="geometry" />
        </mxCell>
        <mxCell id="X5ubHLuiYz6FB7NnJJDE-83" value="循环获取微博" style="rounded=0;whiteSpace=wrap;html=1;" vertex="1" parent="X5ubHLuiYz6FB7NnJJDE-75">
          <mxGeometry x="59.94" y="186" width="120" height="35" as="geometry" />
        </mxCell>
        <mxCell id="X5ubHLuiYz6FB7NnJJDE-108" value="" style="edgeStyle=orthogonalEdgeStyle;rounded=0;orthogonalLoop=1;jettySize=auto;html=1;elbow=vertical;" edge="1" parent="X5ubHLuiYz6FB7NnJJDE-75" source="X5ubHLuiYz6FB7NnJJDE-85" target="X5ubHLuiYz6FB7NnJJDE-97">
          <mxGeometry relative="1" as="geometry" />
        </mxCell>
        <mxCell id="X5ubHLuiYz6FB7NnJJDE-85" value="获取当前微博内容&lt;br&gt;get_one_weibo" style="rounded=0;whiteSpace=wrap;html=1;" vertex="1" parent="X5ubHLuiYz6FB7NnJJDE-75">
          <mxGeometry x="59.94" y="243" width="120" height="35" as="geometry" />
        </mxCell>
        <mxCell id="X5ubHLuiYz6FB7NnJJDE-110" style="edgeStyle=orthogonalEdgeStyle;rounded=0;orthogonalLoop=1;jettySize=auto;html=1;exitX=0;exitY=0.5;exitDx=0;exitDy=0;elbow=vertical;" edge="1" parent="X5ubHLuiYz6FB7NnJJDE-75" source="X5ubHLuiYz6FB7NnJJDE-97" target="X5ubHLuiYz6FB7NnJJDE-99">
          <mxGeometry relative="1" as="geometry">
            <Array as="points">
              <mxPoint x="39.94" y="317" />
              <mxPoint x="39.94" y="490" />
              <mxPoint x="189.94" y="490" />
            </Array>
          </mxGeometry>
        </mxCell>
        <mxCell id="X5ubHLuiYz6FB7NnJJDE-111" style="edgeStyle=orthogonalEdgeStyle;rounded=0;orthogonalLoop=1;jettySize=auto;html=1;exitX=1;exitY=0.5;exitDx=0;exitDy=0;elbow=vertical;" edge="1" parent="X5ubHLuiYz6FB7NnJJDE-75" source="X5ubHLuiYz6FB7NnJJDE-97" target="X5ubHLuiYz6FB7NnJJDE-98">
          <mxGeometry relative="1" as="geometry" />
        </mxCell>
        <mxCell id="X5ubHLuiYz6FB7NnJJDE-97" value="微博内容非空" style="rhombus;rounded=0;whiteSpace=wrap;html=1;" vertex="1" parent="X5ubHLuiYz6FB7NnJJDE-75">
          <mxGeometry x="59.94" y="300" width="120" height="35" as="geometry" />
        </mxCell>
        <mxCell id="X5ubHLuiYz6FB7NnJJDE-112" style="edgeStyle=orthogonalEdgeStyle;rounded=0;orthogonalLoop=1;jettySize=auto;html=1;exitX=0;exitY=0.5;exitDx=0;exitDy=0;entryX=0.5;entryY=0;entryDx=0;entryDy=0;elbow=vertical;" edge="1" parent="X5ubHLuiYz6FB7NnJJDE-75" source="X5ubHLuiYz6FB7NnJJDE-98" target="X5ubHLuiYz6FB7NnJJDE-104">
          <mxGeometry relative="1" as="geometry" />
        </mxCell>
        <mxCell id="X5ubHLuiYz6FB7NnJJDE-114" style="edgeStyle=orthogonalEdgeStyle;rounded=0;orthogonalLoop=1;jettySize=auto;html=1;exitX=1;exitY=0.5;exitDx=0;exitDy=0;entryX=0.5;entryY=0;entryDx=0;entryDy=0;elbow=vertical;" edge="1" parent="X5ubHLuiYz6FB7NnJJDE-75" source="X5ubHLuiYz6FB7NnJJDE-98" target="X5ubHLuiYz6FB7NnJJDE-99">
          <mxGeometry relative="1" as="geometry">
            <Array as="points">
              <mxPoint x="349.94" y="357" />
              <mxPoint x="349.94" y="490" />
              <mxPoint x="189.94" y="490" />
            </Array>
          </mxGeometry>
        </mxCell>
        <mxCell id="X5ubHLuiYz6FB7NnJJDE-98" value="微博ID已存在" style="rhombus;rounded=0;whiteSpace=wrap;html=1;" vertex="1" parent="X5ubHLuiYz6FB7NnJJDE-75">
          <mxGeometry x="209.94" y="340" width="120" height="35" as="geometry" />
        </mxCell>
        <mxCell id="X5ubHLuiYz6FB7NnJJDE-116" style="edgeStyle=orthogonalEdgeStyle;rounded=0;orthogonalLoop=1;jettySize=auto;html=1;exitX=0;exitY=0.5;exitDx=0;exitDy=0;entryX=0;entryY=0.5;entryDx=0;entryDy=0;elbow=vertical;" edge="1" parent="X5ubHLuiYz6FB7NnJJDE-75" source="X5ubHLuiYz6FB7NnJJDE-99" target="X5ubHLuiYz6FB7NnJJDE-85">
          <mxGeometry relative="1" as="geometry">
            <Array as="points">
              <mxPoint x="19.94" y="527" />
              <mxPoint x="19.94" y="261" />
            </Array>
          </mxGeometry>
        </mxCell>
        <mxCell id="X5ubHLuiYz6FB7NnJJDE-99" value="info 的下一条微博" style="rounded=0;whiteSpace=wrap;html=1;" vertex="1" parent="X5ubHLuiYz6FB7NnJJDE-75">
          <mxGeometry x="129.94" y="510" width="120" height="35" as="geometry" />
        </mxCell>
        <mxCell id="X5ubHLuiYz6FB7NnJJDE-115" style="edgeStyle=orthogonalEdgeStyle;rounded=0;orthogonalLoop=1;jettySize=auto;html=1;exitX=0.5;exitY=1;exitDx=0;exitDy=0;entryX=0.5;entryY=0;entryDx=0;entryDy=0;elbow=vertical;" edge="1" parent="X5ubHLuiYz6FB7NnJJDE-75" source="X5ubHLuiYz6FB7NnJJDE-104" target="X5ubHLuiYz6FB7NnJJDE-99">
          <mxGeometry relative="1" as="geometry" />
        </mxCell>
        <mxCell id="X5ubHLuiYz6FB7NnJJDE-104" value="记录" style="swimlane;fontStyle=0;childLayout=stackLayout;horizontal=1;startSize=26;horizontalStack=0;resizeParent=1;resizeParentMax=0;resizeLast=0;collapsible=1;marginBottom=0;comic=0;" vertex="1" parent="X5ubHLuiYz6FB7NnJJDE-75">
          <mxGeometry x="119.94" y="400" width="140" height="78" as="geometry">
            <mxRectangle x="680" y="900" width="50" height="26" as="alternateBounds" />
          </mxGeometry>
        </mxCell>
        <mxCell id="X5ubHLuiYz6FB7NnJJDE-105" value="微博内容 &#xa;" style="text;strokeColor=none;fillColor=none;align=left;verticalAlign=top;spacingLeft=4;spacingRight=4;overflow=hidden;rotatable=0;points=[[0,0.5],[1,0.5]];portConstraint=eastwest;comic=0;" vertex="1" parent="X5ubHLuiYz6FB7NnJJDE-104">
          <mxGeometry y="26" width="140" height="26" as="geometry" />
        </mxCell>
        <mxCell id="X5ubHLuiYz6FB7NnJJDE-106" value="已处理过的微博ID" style="text;strokeColor=none;fillColor=none;align=left;verticalAlign=top;spacingLeft=4;spacingRight=4;overflow=hidden;rotatable=0;points=[[0,0.5],[1,0.5]];portConstraint=eastwest;comic=0;" vertex="1" parent="X5ubHLuiYz6FB7NnJJDE-104">
          <mxGeometry y="52" width="140" height="26" as="geometry" />
        </mxCell>
        <mxCell id="X5ubHLuiYz6FB7NnJJDE-119" value="记录的微博列表" style="shape=hexagon;perimeter=hexagonPerimeter2;whiteSpace=wrap;html=1;fixedSize=1;comic=0;strokeColor=#006EAF;fillColor=#1ba1e2;fontColor=#ffffff;" vertex="1" parent="X5ubHLuiYz6FB7NnJJDE-75">
          <mxGeometry x="10" y="560" width="120" height="30" as="geometry" />
        </mxCell>
        <mxCell id="X5ubHLuiYz6FB7NnJJDE-120" value="已处理的微博ID列表" style="shape=hexagon;perimeter=hexagonPerimeter2;whiteSpace=wrap;html=1;fixedSize=1;comic=0;strokeColor=#006EAF;fillColor=#1ba1e2;fontColor=#ffffff;" vertex="1" parent="X5ubHLuiYz6FB7NnJJDE-75">
          <mxGeometry x="140" y="560" width="130" height="30" as="geometry" />
        </mxCell>
        <mxCell id="X5ubHLuiYz6FB7NnJJDE-121" value="继续标志" style="shape=hexagon;perimeter=hexagonPerimeter2;whiteSpace=wrap;html=1;fixedSize=1;comic=0;strokeColor=#006EAF;fillColor=#1ba1e2;fontColor=#ffffff;" vertex="1" parent="X5ubHLuiYz6FB7NnJJDE-75">
          <mxGeometry x="280" y="560" width="70" height="30" as="geometry" />
        </mxCell>
        <mxCell id="X5ubHLuiYz6FB7NnJJDE-117" value="main" style="swimlane;comic=0;strokeColor=#006600;fillColor=#E6FFCC;" vertex="1" parent="WIyWlLk6GJQsqaUBKTNV-1">
          <mxGeometry x="70" y="-60" width="230" height="580" as="geometry" />
        </mxCell>
        <mxCell id="WIyWlLk6GJQsqaUBKTNV-7" value="开始获取数据&lt;br&gt;start" style="rounded=1;whiteSpace=wrap;html=1;fontSize=12;glass=0;strokeWidth=1;shadow=0;arcSize=0;" parent="X5ubHLuiYz6FB7NnJJDE-117" vertex="1">
          <mxGeometry x="82.5" y="140" width="120" height="40" as="geometry" />
        </mxCell>
        <mxCell id="X5ubHLuiYz6FB7NnJJDE-123" style="edgeStyle=orthogonalEdgeStyle;rounded=0;orthogonalLoop=1;jettySize=auto;html=1;exitX=0.5;exitY=1;exitDx=0;exitDy=0;entryX=0.5;entryY=0;entryDx=0;entryDy=0;elbow=vertical;" edge="1" parent="X5ubHLuiYz6FB7NnJJDE-117" source="X5ubHLuiYz6FB7NnJJDE-2" target="WIyWlLk6GJQsqaUBKTNV-7">
          <mxGeometry relative="1" as="geometry" />
        </mxCell>
        <mxCell id="X5ubHLuiYz6FB7NnJJDE-2" value="准备" style="swimlane;spacingLeft=2;spacingRight=2;fillColor=#60a917;strokeColor=#2D7600;fontColor=#ffffff;" vertex="1" parent="X5ubHLuiYz6FB7NnJJDE-117">
          <mxGeometry x="50" y="40" width="170" height="73" as="geometry" />
        </mxCell>
        <mxCell id="WIyWlLk6GJQsqaUBKTNV-3" value="Cookie" style="shape=parallelogram;rounded=0;whiteSpace=wrap;html=1;fontSize=12;glass=0;strokeWidth=1;shadow=0;perimeter=parallelogramPerimeter;" parent="X5ubHLuiYz6FB7NnJJDE-2" vertex="1">
          <mxGeometry x="10" y="38" width="80" height="25" as="geometry" />
        </mxCell>
        <mxCell id="X5ubHLuiYz6FB7NnJJDE-3" value="用户ID列表" style="shape=parallelogram;rounded=0;whiteSpace=wrap;html=1;fontSize=12;glass=0;strokeWidth=1;shadow=0;perimeter=parallelogramPerimeter;" vertex="1" parent="X5ubHLuiYz6FB7NnJJDE-2">
          <mxGeometry x="82.5" y="38" width="80" height="25" as="geometry" />
        </mxCell>
        <mxCell id="X5ubHLuiYz6FB7NnJJDE-7" value="一个用户ID&lt;br&gt;get_one_user" style="rounded=1;whiteSpace=wrap;html=1;fontSize=12;glass=0;strokeWidth=1;shadow=0;arcSize=0;" vertex="1" parent="X5ubHLuiYz6FB7NnJJDE-117">
          <mxGeometry x="82.5" y="204" width="120" height="40" as="geometry" />
        </mxCell>
        <mxCell id="X5ubHLuiYz6FB7NnJJDE-33" style="edgeStyle=orthogonalEdgeStyle;rounded=0;orthogonalLoop=1;jettySize=auto;html=1;exitX=0.5;exitY=1;exitDx=0;exitDy=0;entryX=0.5;entryY=0;entryDx=0;entryDy=0;" edge="1" parent="X5ubHLuiYz6FB7NnJJDE-117" source="WIyWlLk6GJQsqaUBKTNV-7" target="X5ubHLuiYz6FB7NnJJDE-7">
          <mxGeometry relative="1" as="geometry" />
        </mxCell>
        <mxCell id="X5ubHLuiYz6FB7NnJJDE-20" value="获取微博内容&lt;br&gt;get_weibo_info" style="rounded=1;whiteSpace=wrap;html=1;fontSize=12;glass=0;strokeWidth=1;shadow=0;flipV=0;flipH=1;arcSize=0;" vertex="1" parent="X5ubHLuiYz6FB7NnJJDE-117">
          <mxGeometry x="82.5" y="390" width="120" height="40" as="geometry" />
        </mxCell>
        <mxCell id="X5ubHLuiYz6FB7NnJJDE-21" value="保存微博内容&lt;br&gt;write_weibo" style="rounded=1;whiteSpace=wrap;html=1;fontSize=12;glass=0;strokeWidth=1;shadow=0;flipV=0;flipH=1;arcSize=0;" vertex="1" parent="X5ubHLuiYz6FB7NnJJDE-117">
          <mxGeometry x="82.5" y="450" width="120" height="40" as="geometry" />
        </mxCell>
        <mxCell id="X5ubHLuiYz6FB7NnJJDE-31" style="edgeStyle=orthogonalEdgeStyle;rounded=0;orthogonalLoop=1;jettySize=auto;html=1;exitX=0.5;exitY=1;exitDx=0;exitDy=0;entryX=0.5;entryY=0;entryDx=0;entryDy=0;" edge="1" parent="X5ubHLuiYz6FB7NnJJDE-117" source="X5ubHLuiYz6FB7NnJJDE-20" target="X5ubHLuiYz6FB7NnJJDE-21">
          <mxGeometry relative="1" as="geometry" />
        </mxCell>
        <mxCell id="X5ubHLuiYz6FB7NnJJDE-29" style="edgeStyle=orthogonalEdgeStyle;rounded=0;orthogonalLoop=1;jettySize=auto;html=1;exitX=1;exitY=0.5;exitDx=0;exitDy=0;entryX=0.5;entryY=0;entryDx=0;entryDy=0;" edge="1" parent="X5ubHLuiYz6FB7NnJJDE-117" source="X5ubHLuiYz6FB7NnJJDE-22" target="X5ubHLuiYz6FB7NnJJDE-20">
          <mxGeometry relative="1" as="geometry">
            <Array as="points">
              <mxPoint x="222.5" y="289" />
              <mxPoint x="222.5" y="370" />
              <mxPoint x="142.5" y="370" />
            </Array>
          </mxGeometry>
        </mxCell>
        <mxCell id="X5ubHLuiYz6FB7NnJJDE-22" value="需要头像" style="rhombus;whiteSpace=wrap;html=1;" vertex="1" parent="X5ubHLuiYz6FB7NnJJDE-117">
          <mxGeometry x="97.5" y="270" width="90" height="37" as="geometry" />
        </mxCell>
        <mxCell id="X5ubHLuiYz6FB7NnJJDE-26" style="edgeStyle=elbowEdgeStyle;rounded=0;orthogonalLoop=1;jettySize=auto;html=1;exitX=0.5;exitY=1;exitDx=0;exitDy=0;entryX=0.5;entryY=0;entryDx=0;entryDy=0;" edge="1" parent="X5ubHLuiYz6FB7NnJJDE-117" source="X5ubHLuiYz6FB7NnJJDE-7" target="X5ubHLuiYz6FB7NnJJDE-22">
          <mxGeometry relative="1" as="geometry" />
        </mxCell>
        <mxCell id="X5ubHLuiYz6FB7NnJJDE-30" style="edgeStyle=orthogonalEdgeStyle;rounded=0;orthogonalLoop=1;jettySize=auto;html=1;exitX=0.5;exitY=1;exitDx=0;exitDy=0;" edge="1" parent="X5ubHLuiYz6FB7NnJJDE-117" source="X5ubHLuiYz6FB7NnJJDE-23">
          <mxGeometry relative="1" as="geometry">
            <mxPoint x="142.5" y="390" as="targetPoint" />
          </mxGeometry>
        </mxCell>
        <mxCell id="X5ubHLuiYz6FB7NnJJDE-23" value="下载头像" style="rounded=1;whiteSpace=wrap;html=1;fontSize=12;glass=0;strokeWidth=1;shadow=0;arcSize=0;" vertex="1" parent="X5ubHLuiYz6FB7NnJJDE-117">
          <mxGeometry x="22.5" y="320" width="80" height="30" as="geometry" />
        </mxCell>
        <mxCell id="X5ubHLuiYz6FB7NnJJDE-28" style="edgeStyle=orthogonalEdgeStyle;rounded=0;orthogonalLoop=1;jettySize=auto;html=1;exitX=0;exitY=0.5;exitDx=0;exitDy=0;entryX=0.5;entryY=0;entryDx=0;entryDy=0;" edge="1" parent="X5ubHLuiYz6FB7NnJJDE-117" source="X5ubHLuiYz6FB7NnJJDE-22" target="X5ubHLuiYz6FB7NnJJDE-23">
          <mxGeometry relative="1" as="geometry" />
        </mxCell>
        <mxCell id="X5ubHLuiYz6FB7NnJJDE-25" style="edgeStyle=orthogonalEdgeStyle;rounded=0;orthogonalLoop=1;jettySize=auto;html=1;exitX=0.5;exitY=1;exitDx=0;exitDy=0;entryX=0;entryY=0.5;entryDx=0;entryDy=0;" edge="1" parent="X5ubHLuiYz6FB7NnJJDE-117" source="X5ubHLuiYz6FB7NnJJDE-24" target="X5ubHLuiYz6FB7NnJJDE-7">
          <mxGeometry relative="1" as="geometry">
            <Array as="points">
              <mxPoint x="143" y="570" />
              <mxPoint x="10" y="570" />
              <mxPoint x="10" y="224" />
            </Array>
          </mxGeometry>
        </mxCell>
        <mxCell id="X5ubHLuiYz6FB7NnJJDE-24" value="微博总量计数&lt;br&gt;got_num" style="rounded=1;whiteSpace=wrap;html=1;fontSize=12;glass=0;strokeWidth=1;shadow=0;flipV=0;flipH=1;arcSize=0;" vertex="1" parent="X5ubHLuiYz6FB7NnJJDE-117">
          <mxGeometry x="82.5" y="510" width="120" height="42" as="geometry" />
        </mxCell>
        <mxCell id="X5ubHLuiYz6FB7NnJJDE-122" value="Text" style="text;html=1;align=center;verticalAlign=middle;resizable=0;points=[];autosize=1;" vertex="1" parent="X5ubHLuiYz6FB7NnJJDE-24">
          <mxGeometry x="65.5" y="22" width="40" height="20" as="geometry" />
        </mxCell>
        <mxCell id="X5ubHLuiYz6FB7NnJJDE-32" style="edgeStyle=orthogonalEdgeStyle;rounded=0;orthogonalLoop=1;jettySize=auto;html=1;exitX=0.5;exitY=1;exitDx=0;exitDy=0;entryX=0.5;entryY=0;entryDx=0;entryDy=0;" edge="1" parent="X5ubHLuiYz6FB7NnJJDE-117" source="X5ubHLuiYz6FB7NnJJDE-21" target="X5ubHLuiYz6FB7NnJJDE-24">
          <mxGeometry relative="1" as="geometry" />
        </mxCell>
      </root>
    </mxGraphModel>
  </diagram>
</mxfile>
